<?xml version="1.0" standalone="no"?>
<!DOCTYPE svg PUBLIC "-//W3C//DTD SVG 20010904//EN"
 "http://www.w3.org/TR/2001/REC-SVG-20010904/DTD/svg10.dtd">
<svg version="1.0" xmlns="http://www.w3.org/2000/svg"
 width="1280.000000pt" height="650.000000pt" viewBox="0 0 1280.000000 650.000000"
 preserveAspectRatio="xMidYMid meet">
<metadata>
Created by potrace 1.15, written by Peter Selinger 2001-2017
</metadata>
<g transform="translate(0.000000,650.000000) scale(0.100000,-0.100000)"
fill="#000000" stroke="none">
<path d="M150 6354 c-59 -33 -86 -60 -117 -111 -51 -88 -37 -217 29 -264 87
-63 205 13 177 115 -16 58 -65 80 -133 61 l-29 -8 6 42 c7 56 47 115 97 143
38 22 53 48 28 48 -7 0 -33 -12 -58 -26z"/>
<path d="M470 6358 c-105 -52 -170 -163 -156 -267 14 -107 120 -169 193 -115
44 33 58 69 44 115 -18 60 -66 83 -133 65 -25 -7 -28 -6 -28 16 0 13 12 48 27
77 19 40 39 62 75 84 76 47 60 65 -22 25z"/>
<path d="M4540 6354 c-90 -51 -138 -119 -147 -208 -10 -99 36 -176 115 -192
41 -8 95 20 118 61 15 29 16 39 5 75 -20 67 -75 91 -145 64 -17 -7 -19 -4 -13
35 7 56 47 115 97 143 38 22 53 48 28 48 -7 0 -33 -12 -58 -26z"/>
<path d="M4860 6358 c-137 -68 -199 -232 -130 -343 21 -34 73 -65 110 -65 54
0 110 57 110 112 0 64 -73 120 -129 100 -36 -13 -46 -3 -36 36 13 53 55 111
100 138 75 43 54 61 -25 22z"/>
<path d="M9010 6354 c-98 -55 -150 -136 -150 -232 0 -117 85 -195 174 -158 44
19 66 52 66 101 0 66 -61 116 -116 95 -38 -15 -44 -13 -44 15 0 61 55 142 111
165 29 12 40 40 17 40 -7 0 -33 -12 -58 -26z"/>
<path d="M9314 6350 c-96 -54 -151 -152 -142 -250 7 -68 39 -115 93 -135 42
-16 46 -16 82 1 52 26 76 76 62 127 -16 59 -65 81 -133 62 l-29 -8 6 42 c7 56
47 115 97 143 38 22 53 48 28 48 -7 0 -36 -13 -64 -30z"/>
<path d="M574 6196 c-3 -8 -4 -25 -2 -38 l3 -23 1583 -5 1582 -5 0 -900 c0
-945 0 -945 43 -953 49 -10 47 -46 47 979 l0 959 -1625 0 c-1399 0 -1626 -2
-1631 -14z"/>
<path d="M5042 6198 c-7 -7 -12 -19 -12 -28 0 -9 5 -21 12 -28 9 -9 367 -12
1550 -12 l1538 0 0 -894 c0 -860 1 -895 19 -917 16 -21 22 -22 45 -11 l26 12
0 945 0 945 -1583 0 c-1218 0 -1586 -3 -1595 -12z"/>
<path d="M9512 6198 c-7 -7 -12 -19 -12 -28 0 -9 5 -21 12 -28 9 -9 367 -12
1550 -12 l1538 0 0 -893 c0 -792 2 -895 16 -915 18 -26 37 -28 58 -6 14 14 16
114 16 955 l0 939 -1583 0 c-1218 0 -1586 -3 -1595 -12z"/>
<path d="M92 5868 c-9 -9 -12 -240 -12 -980 l0 -968 1624 0 c1464 0 1626 2
1640 16 21 20 20 37 -2 57 -17 16 -142 17 -1595 17 l-1577 0 0 916 c0 612 -3
922 -10 935 -12 21 -50 25 -68 7z"/>
<path d="M4482 5838 c-9 -9 -12 -237 -12 -965 l0 -953 1603 0 c1233 0 1606 3
1615 12 7 7 12 21 12 33 0 12 -5 26 -12 33 -9 9 -372 12 -1570 12 l-1558 0 0
901 c0 601 -3 907 -10 920 -12 21 -50 25 -68 7z"/>
<path d="M8952 5838 c-9 -9 -12 -237 -12 -965 l0 -953 1603 0 c1233 0 1606 3
1615 12 18 18 14 56 -7 68 -13 7 -521 10 -1570 10 l-1551 0 0 894 c0 557 -4
904 -10 920 -10 28 -47 35 -68 14z"/>
<path d="M3422 4195 c-60 -43 -65 -124 -11 -169 33 -28 53 -31 94 -16 33 13
41 -5 25 -57 -18 -54 -55 -100 -101 -123 -21 -11 -39 -27 -39 -35 0 -20 2 -19
60 10 68 34 115 78 138 128 43 90 36 179 -17 239 -34 38 -111 50 -149 23z"/>
<path d="M3734 4191 c-44 -27 -60 -77 -40 -124 25 -61 75 -79 139 -52 14 6 17
2 17 -21 -1 -45 -34 -107 -76 -142 -21 -18 -44 -32 -51 -32 -7 0 -13 -9 -13
-20 0 -20 2 -20 50 5 101 51 156 121 167 213 16 139 -91 235 -193 173z"/>
<path d="M7812 4194 c-60 -42 -65 -123 -10 -169 27 -23 39 -26 76 -22 l44 5
-5 -44 c-6 -54 -44 -107 -98 -134 -21 -11 -39 -27 -39 -35 0 -20 2 -19 59 9
66 34 107 70 137 121 72 123 15 285 -100 285 -23 0 -52 -7 -64 -16z"/>
<path d="M8124 4191 c-36 -22 -58 -75 -48 -115 3 -14 20 -38 37 -52 26 -22 38
-25 74 -21 48 5 53 -2 42 -52 -9 -41 -53 -97 -94 -119 -66 -37 -53 -61 15 -27
107 54 170 142 170 238 0 128 -102 205 -196 148z"/>
<path d="M12264 4176 c-48 -48 -47 -95 1 -143 28 -28 41 -34 63 -30 69 14 67
15 64 -23 -4 -53 -46 -116 -97 -146 -25 -14 -45 -32 -45 -40 0 -18 3 -18 53 7
112 57 170 139 170 243 0 74 -21 119 -66 146 -51 32 -103 26 -143 -14z"/>
<path d="M12592 4194 c-60 -41 -65 -123 -11 -168 33 -28 53 -31 94 -16 33 13
41 -5 25 -57 -18 -54 -55 -100 -101 -123 -21 -11 -39 -27 -39 -35 0 -20 4 -20
72 17 33 17 75 50 94 72 109 127 63 325 -76 326 -20 0 -46 -7 -58 -16z"/>
<path d="M158 3284 c-104 -54 -153 -130 -153 -240 0 -61 4 -75 27 -106 64 -83
171 -71 207 23 13 35 4 68 -28 102 -24 27 -30 29 -80 24 l-53 -6 5 38 c7 52
49 113 97 140 22 12 40 29 40 37 0 19 -7 17 -62 -12z"/>
<path d="M470 3284 c-96 -54 -148 -127 -157 -219 -10 -93 52 -185 125 -185 68
0 130 69 117 130 -14 63 -83 98 -136 70 -27 -15 -35 10 -20 60 14 48 52 94
103 126 38 24 50 44 26 44 -7 0 -33 -12 -58 -26z"/>
<path d="M4665 3281 c-72 -41 -121 -99 -141 -167 -36 -125 24 -234 130 -234
30 0 45 7 72 34 40 40 45 83 14 133 -22 36 -54 48 -105 40 -43 -7 -49 2 -35
53 13 48 67 112 110 130 30 12 42 40 18 40 -7 0 -36 -13 -63 -29z"/>
<path d="M4994 3291 c-104 -47 -166 -140 -166 -246 0 -73 20 -116 68 -146 50
-30 100 -25 140 15 47 47 48 104 4 148 -28 28 -35 30 -82 26 l-50 -5 5 43 c6
53 43 106 97 136 22 13 40 29 40 36 0 16 -7 15 -56 -7z"/>
<path d="M9014 3285 c-58 -30 -80 -48 -115 -95 -54 -73 -64 -157 -26 -230 31
-61 64 -83 123 -82 39 1 53 7 81 34 28 27 33 39 33 79 0 40 -5 52 -32 79 -29
29 -36 32 -80 28 -26 -3 -50 -3 -52 -1 -7 8 22 82 45 114 11 16 38 38 60 49
37 20 53 50 26 50 -7 0 -35 -11 -63 -25z"/>
<path d="M9334 3291 c-136 -62 -207 -216 -153 -328 32 -66 69 -87 146 -84 70
2 119 90 87 157 -24 51 -55 68 -110 61 l-46 -5 5 36 c9 51 51 109 97 132 22
11 40 27 40 35 0 20 -16 19 -66 -4z"/>
<path d="M10809 3133 c-9 -10 -15 -10 -25 -2 -9 7 -42 9 -99 5 -47 -3 -123 -9
-170 -12 -59 -4 -85 -3 -85 5 0 6 -8 11 -17 11 -16 0 -16 -2 -3 -11 12 -9 11
-10 -5 -4 -11 4 -35 9 -52 12 -27 5 -33 2 -33 -12 0 -16 -2 -16 -25 -1 -14 9
-31 14 -37 10 -13 -8 -94 -11 -450 -16 -131 -2 -238 0 -238 5 0 5 -10 7 -22 5
-16 -2 -23 -11 -25 -35 l-4 -31 103 -2 c57 -1 128 -2 158 -3 30 -2 60 1 65 4
6 4 29 4 53 -1 45 -8 154 -2 162 9 3 3 18 7 33 8 26 1 27 0 10 -13 -16 -12
-15 -13 14 -14 17 0 33 6 36 13 3 9 9 9 26 -1 13 -8 28 -10 34 -5 7 5 50 7 97
6 47 -1 126 -2 175 -2 96 1 386 -1 420 -3 11 0 34 0 50 1 17 1 79 -1 139 -4
84 -6 110 -4 117 6 6 10 10 10 23 0 12 -10 49 -11 181 -3 91 5 180 7 198 3 17
-4 118 -6 222 -5 105 1 225 -2 269 -8 43 -5 85 -7 94 -3 31 11 402 13 403 1 5
-46 7 -85 9 -185 1 -63 7 -122 13 -132 8 -13 8 -21 -1 -31 -8 -10 -8 -33 -1
-82 5 -41 6 -74 0 -84 -5 -9 -5 -26 -1 -38 5 -12 6 -25 3 -28 -4 -3 -2 -6 4
-6 6 0 11 -16 10 -35 -1 -19 -3 -35 -6 -35 -4 0 -5 -51 -4 -113 2 -61 3 -121
2 -132 -3 -206 -3 -305 1 -305 10 0 10 -94 1 -109 -6 -9 -5 -23 1 -37 8 -17 8
-27 0 -36 -16 -20 -13 -136 4 -169 8 -17 10 -29 4 -29 -5 0 -10 -10 -10 -22 0
-37 21 -5 27 41 4 28 2 41 -6 41 -7 0 -9 5 -5 12 4 6 8 36 10 67 14 304 14
301 -4 301 -15 0 -15 2 -2 10 12 7 15 38 16 162 2 171 3 188 15 204 5 6 4 25
-2 43 -9 24 -9 39 0 57 9 20 8 30 -6 50 -13 21 -14 27 -3 34 9 6 11 22 6 58
-4 35 -2 57 9 78 13 26 13 30 0 40 -15 11 -21 36 -7 32 13 -5 13 16 1 60 -9
32 -9 49 0 68 13 30 15 67 2 46 -7 -11 -10 -10 -15 3 -9 23 -8 25 10 25 13 0
14 6 8 33 -5 17 -8 56 -7 86 1 30 -2 62 -8 72 -6 11 -5 20 1 24 5 3 10 13 10
20 0 12 -24 14 -129 12 -71 -1 -127 1 -124 6 7 11 -54 8 -119 -5 -50 -10 -61
-10 -68 2 -7 12 -16 12 -54 2 -31 -8 -53 -9 -71 -2 -17 7 -24 7 -20 0 8 -13
-30 -13 -75 0 -59 17 -161 22 -178 8 -19 -16 -16 -17 -42 7 -16 14 -24 16 -27
8 -3 -8 -12 -9 -28 -3 -14 5 -56 6 -101 0 -43 -4 -100 -6 -128 -3 -28 3 -62 1
-75 -4 -17 -7 -33 -5 -53 4 -21 11 -40 12 -76 6 -52 -10 -214 -9 -231 1 -6 4
-16 4 -23 0 -15 -9 -140 -11 -196 -3 -29 4 -46 2 -53 -8z"/>
<path d="M632 3128 c-18 -18 -14 -56 7 -68 13 -7 518 -10 1563 -10 l1543 0 -3
-887 c-2 -782 0 -889 13 -910 17 -25 44 -30 63 -11 9 9 12 235 12 955 l0 943
-1593 0 c-1226 0 -1596 -3 -1605 -12z"/>
<path d="M5142 3128 c-18 -18 -14 -56 7 -68 13 -7 519 -10 1565 -10 l1546 0 0
-898 c0 -685 3 -901 12 -910 17 -17 44 -15 62 4 14 14 16 114 16 955 l0 939
-1598 0 c-1230 0 -1601 -3 -1610 -12z"/>
<path d="M92 2768 c-9 -9 -12 -237 -12 -965 l0 -953 235 0 c129 0 235 -4 235
-8 0 -5 -34 -149 -75 -322 -42 -172 -74 -314 -72 -316 2 -3 173 142 380 321
l376 325 1075 0 c1052 0 1076 0 1086 19 13 26 3 50 -27 62 -14 5 -464 9 -1094
9 l-1069 0 -73 -63 c-386 -334 -507 -437 -507 -427 0 6 25 114 55 241 30 126
55 234 55 239 0 6 -94 10 -245 10 l-245 0 0 904 c0 809 -2 906 -16 920 -18 19
-45 21 -62 4z"/>
<path d="M4606 2764 c-14 -14 -16 -115 -16 -965 l0 -949 235 0 c181 0 235 -3
235 -12 0 -7 -33 -152 -74 -323 -41 -171 -73 -311 -71 -313 4 -4 149 116 345
288 85 75 213 186 285 248 l130 112 1070 0 c820 0 1074 3 1083 12 19 19 14 45
-10 62 -20 14 -141 16 -1099 16 l-1076 0 -289 -249 c-159 -137 -290 -248 -291
-247 -1 1 23 103 53 226 29 124 54 235 54 248 l0 22 -245 0 -245 0 0 904 c0
809 -2 906 -16 920 -8 9 -22 16 -29 16 -7 0 -21 -7 -29 -16z"/>
<path d="M8954 2728 c-8 -11 -11 -77 -13 -306 0 -35 4 -72 9 -83 6 -11 7 -19
2 -19 -5 0 -9 -24 -8 -52 1 -29 -2 -57 -5 -63 -9 -13 8 -117 20 -125 7 -4 7
-17 2 -35 -5 -17 -10 -22 -10 -12 -1 20 -21 24 -21 3 0 -7 5 -28 11 -45 8 -24
9 -39 1 -56 -6 -14 -7 -27 -3 -30 5 -3 7 -78 4 -167 -6 -190 -6 -169 2 -283 6
-99 6 -215 -1 -315 -2 -36 -4 -72 -3 -80 0 -8 0 -60 -1 -115 l0 -100 107 1
c60 0 118 4 129 8 13 5 24 3 28 -3 9 -14 121 -14 148 0 11 6 30 8 42 5 22 -5
23 -9 15 -60 -5 -29 -18 -73 -29 -97 -11 -24 -20 -56 -20 -70 0 -30 -35 -170
-48 -196 -5 -10 -19 -58 -31 -108 -11 -49 -24 -101 -28 -115 -5 -20 6 -14 63
36 38 34 112 94 164 134 52 39 100 82 107 93 6 12 14 21 17 20 3 -1 36 27 73
62 37 35 71 65 76 65 4 0 15 8 25 17 108 104 163 153 188 169 16 10 34 25 40
33 9 12 47 15 185 16 110 0 182 5 195 12 12 7 26 8 34 3 8 -5 75 -6 150 -3
214 9 400 9 400 0 0 -5 9 -5 20 -2 11 4 124 6 250 7 127 0 228 3 225 7 -2 5
21 6 53 4 31 -3 80 -5 107 -6 28 -1 55 -5 61 -9 15 -10 171 0 194 12 11 6 31
8 45 4 15 -4 25 -2 25 5 0 6 -9 12 -20 12 -60 4 -82 3 -86 -2 -2 -4 -28 -4
-56 -2 -29 3 -110 6 -180 7 -71 0 -128 4 -128 8 0 11 -85 -1 -88 -12 -3 -7
-11 -6 -25 2 -13 8 -42 13 -72 11 -47 -3 -219 -3 -310 1 -22 0 -43 5 -47 10
-3 5 -27 5 -56 -1 -31 -6 -57 -6 -67 -1 -18 11 -75 1 -75 -13 0 -14 -27 -10
-33 5 -6 14 -53 15 -95 2 -10 -4 -36 1 -57 10 -32 13 -42 14 -62 3 -19 -10
-26 -10 -32 -1 -5 9 -19 8 -59 -3 -47 -14 -57 -14 -104 0 -61 18 -58 17 -58 6
0 -5 8 -12 18 -14 10 -3 6 -5 -10 -6 -16 0 -28 3 -28 8 0 5 -49 8 -112 5 -86
-2 -114 -7 -120 -18 -5 -8 -14 -13 -21 -10 -7 2 -19 -6 -26 -20 -8 -13 -51
-55 -97 -93 -46 -37 -84 -74 -84 -82 0 -7 -6 -11 -14 -8 -8 3 -20 -1 -26 -9
-7 -8 -18 -14 -24 -14 -6 -1 -31 -28 -56 -60 -31 -41 -50 -59 -62 -56 -11 3
-27 -8 -43 -27 -13 -18 -31 -39 -40 -47 -9 -8 -30 -29 -47 -47 -32 -33 -63
-35 -53 -2 4 11 2 19 -4 19 -17 0 -1 29 20 35 14 5 18 12 14 25 -3 11 -1 28 5
39 6 12 17 62 26 113 14 92 29 155 44 193 5 11 11 33 15 48 6 29 6 29 -35 22
-23 -4 -61 -2 -89 6 -34 9 -66 9 -107 3 -33 -5 -92 -6 -133 -2 -40 4 -80 4
-89 -1 -10 -6 -21 -4 -30 6 -12 12 -13 35 -8 124 4 68 3 115 -3 122 -5 7 -6
30 -1 57 8 49 5 160 -6 200 -13 45 -10 190 4 199 9 6 10 15 3 33 -5 14 -8 28
-7 29 2 2 6 19 9 37 5 25 3 32 -8 30 -18 -4 -20 7 -5 42 8 19 9 43 4 67 -4 21
-7 56 -6 78 1 47 1 27 -3 283 -2 111 -6 213 -9 227 -3 13 -2 34 3 48 5 13 6
52 2 88 -6 46 -4 67 5 76 13 13 8 53 -6 53 -5 0 -15 3 -23 6 -8 3 -19 -1 -23
-8z"/>
<path d="M12630 1385 c0 -8 4 -15 10 -15 5 0 7 7 4 15 -4 8 -8 15 -10 15 -2 0
-4 -7 -4 -15z"/>
<path d="M12316 1139 c-27 -4 -49 -17 -69 -39 -26 -29 -29 -38 -23 -79 4 -34
14 -53 37 -75 29 -25 37 -28 81 -23 56 7 58 2 29 -65 -10 -24 -36 -58 -57 -76
-74 -60 -78 -66 -65 -70 7 -2 41 10 77 28 159 78 209 268 97 371 -34 32 -55
37 -107 28z"/>
<path d="M12627 1139 c-22 -3 -50 -18 -65 -33 -23 -22 -27 -35 -26 -78 0 -45
5 -55 34 -81 30 -27 38 -29 83 -24 l49 6 -7 -36 c-9 -50 -43 -98 -92 -129 -49
-31 -59 -60 -17 -50 47 12 131 73 161 118 65 94 63 205 -3 271 -39 39 -61 46
-117 36z"/>
<path d="M3428 1124 c-30 -16 -58 -61 -58 -94 0 -71 80 -122 141 -90 27 15 33
-6 19 -60 -13 -48 -67 -112 -110 -130 -36 -15 -42 -45 -7 -35 124 37 221 175
203 288 -17 106 -108 165 -188 121z"/>
<path d="M3723 1106 c-32 -29 -38 -41 -38 -75 0 -74 74 -123 136 -91 15 9 21
7 26 -5 16 -44 -46 -149 -108 -181 -16 -8 -29 -21 -29 -29 0 -19 3 -19 51 5
135 69 201 210 151 323 -40 89 -124 113 -189 53z"/>
<path d="M7955 1130 c-71 -29 -91 -117 -39 -171 26 -27 35 -30 77 -27 57 4 66
-11 42 -69 -19 -44 -58 -89 -97 -109 -16 -8 -28 -21 -28 -29 0 -20 2 -19 60
10 62 31 117 86 141 139 24 53 25 140 1 186 -31 62 -101 94 -157 70z"/>
<path d="M8264 1130 c-36 -14 -64 -59 -64 -102 0 -31 7 -46 30 -70 28 -28 35
-30 82 -26 l50 5 -5 -39 c-7 -52 -48 -109 -97 -137 -22 -12 -40 -29 -40 -37 0
-18 3 -18 53 7 69 35 106 67 137 122 38 66 42 162 10 215 -36 58 -101 84 -156
62z"/>
<path d="M11985 880 c-3 -5 3 -10 14 -10 11 0 23 5 26 10 3 6 -3 10 -14 10
-11 0 -23 -4 -26 -10z"/>
</g>
</svg>
