<?xml version="1.0" standalone="no"?>
<!DOCTYPE svg PUBLIC "-//W3C//DTD SVG 20010904//EN"
 "http://www.w3.org/TR/2001/REC-SVG-20010904/DTD/svg10.dtd">
<svg version="1.0" xmlns="http://www.w3.org/2000/svg"
 width="1280.000000pt" height="1280.000000pt" viewBox="0 0 1280.000000 1280.000000"
 preserveAspectRatio="xMidYMid meet">
<metadata>
Created by potrace 1.15, written by Peter Selinger 2001-2017
</metadata>
<g transform="translate(0.000000,1280.000000) scale(0.100000,-0.100000)"
fill="#000000" stroke="none">
<path d="M5985 10913 c-149 -5 -440 -24 -515 -33 -41 -5 -142 -17 -225 -25
-240 -25 -632 -88 -810 -130 -33 -7 -123 -28 -200 -46 -454 -103 -952 -269
-1370 -456 -1053 -473 -1831 -1125 -2257 -1893 -440 -794 -462 -1677 -60
-2485 98 -198 249 -429 411 -630 87 -108 373 -396 505 -509 456 -390 1037
-730 1676 -983 796 -314 1663 -501 2610 -563 91 -6 407 -13 703 -17 l537 -6 7
-25 c11 -45 -5 -603 -21 -712 -44 -301 -118 -556 -222 -764 -92 -183 -125
-227 -489 -651 -100 -116 -218 -255 -264 -310 -47 -55 -91 -108 -100 -118 -18
-22 30 0 576 266 510 249 766 391 998 555 44 32 98 69 120 84 46 31 243 188
337 268 66 57 313 300 363 360 284 332 478 687 551 1010 28 124 36 178 50 330
l6 79 192 61 c982 316 1765 757 2330 1310 87 85 193 196 235 245 419 492 661
1037 721 1625 13 129 13 434 0 555 -65 580 -324 1133 -766 1635 -842 956
-2306 1653 -3964 1885 -567 79 -1102 107 -1665 88z m905 -413 c91 -6 201 -14
245 -20 44 -5 165 -19 269 -30 344 -38 841 -132 1161 -221 502 -140 865 -276
1270 -474 1092 -536 1817 -1278 2069 -2118 91 -305 111 -655 57 -992 -85 -527
-364 -1033 -807 -1465 -164 -160 -173 -167 -334 -294 -495 -388 -1194 -734
-1939 -960 -80 -24 -202 -61 -271 -81 -69 -21 -126 -38 -128 -40 -1 -1 2 -69
7 -151 9 -133 4 -280 -13 -360 -25 -123 -63 -248 -101 -339 -155 -370 -459
-732 -910 -1084 -97 -76 -230 -171 -238 -171 -2 0 15 62 38 137 23 76 52 190
64 253 11 63 25 138 31 165 48 249 56 794 15 1110 -23 179 -25 188 -27 190 -2
1 -88 -3 -193 -8 -390 -19 -1563 14 -1820 53 -38 5 -155 21 -260 35 -481 62
-1131 220 -1560 377 -538 198 -936 395 -1345 668 -128 85 -176 120 -330 238
-152 117 -407 364 -544 527 -707 840 -827 1803 -335 2691 71 127 165 270 244
369 31 39 68 86 83 105 47 60 214 236 297 313 559 518 1294 926 2170 1206 105
33 226 70 270 81 44 11 94 25 110 30 35 12 299 74 400 95 228 47 490 89 720
115 99 11 216 24 260 30 83 10 385 28 560 34 149 5 627 -4 815 -14z"/>
</g>
</svg>
